Coordinates
version=1
nRows=9
nColumns=24
inDegrees=yes

Units are S.I. units (second, meters, Newtons, ...)
Angles are in degrees.

endheader
time	pelvis_tilt	pelvis_list	pelvis_rotation	pelvis_tx	pelvis_ty	pelvis_tz	hip_flexion_r	hip_adduction_r	hip_rotation_r	knee_angle_r	ankle_angle_r	subtalar_angle_r	mtp_angle_r	hip_flexion_l	hip_adduction_l	hip_rotation_l	knee_angle_l	ankle_angle_l	subtalar_angle_l	mtp_angle_l	lumbar_extension	lumbar_bending	lumbar_rotation
      0.77100000	      0.71312145	     -5.87645197	      7.89656985	     -0.44476666	      0.90921996	      0.31352356	     11.60476410	     11.84151488	     -5.71937070	    -20.32930766	      8.67274175	     -2.96216062	      3.48088795	     15.56775373	    -10.32684444	     -0.68932056	    -73.22281949	     -0.46514914	     -8.31482798	      2.39808208	     -6.61923087	      7.33441582	     -0.23014338
      0.77516667	      0.63808290	     -5.71719833	      7.75903273	     -0.43947565	      0.91033114	      0.31386049	     11.02673803	     11.76321463	     -5.50781531	    -19.83555093	      8.71620455	     -2.83923710	      3.47658715	     16.26601621	     -9.99605714	     -0.82053260	    -72.85105723	     -0.00198502	     -8.39771851	      2.36979305	     -6.56721617	      7.14661221	     -0.13496755
      0.77933333	      0.61060093	     -5.54560339	      7.57408646	     -0.43420747	      0.91148353	      0.31426798	     10.39219500	     11.68716060	     -5.21938936	    -19.34016682	      8.76110794	     -2.75155924	      3.45612109	     16.87454005	     -9.68285649	     -1.01784937	    -72.40682005	      0.48813010	     -8.36180077	      2.24354172	     -6.62509186	      6.94738592	      0.30627347
      0.78350000	      0.55372952	     -5.37278144	      7.38942132	     -0.42895291	      0.91256876	      0.31465809	      9.79441563	     11.59324892	     -4.97171284	    -18.84763138	      8.77735072	     -2.61855865	      3.44693716	     17.50061188	     -9.36009623	     -1.21274533	    -71.89407961	      0.94936811	     -8.38823107	      2.18840284	     -6.63189516	      6.73717516	      0.48013882
      0.78766667	      0.54454852	     -5.21132711	      7.20238551	     -0.42366098	      0.91369633	      0.31506603	      9.12103209	     11.51916378	     -4.72018003	    -18.30466522	      8.82567203	     -2.50361573	      3.43407632	     18.05096685	     -9.07372456	     -1.42913756	    -71.30663674	      1.35987381	     -8.34895877	      2.09788867	     -6.68126784	      6.53436750	      0.83599268
      0.79183333	      0.52542423	     -5.04442052	      6.99978199	     -0.41839310	      0.91478000	      0.31547733	      8.46276141	     11.42994195	     -4.47438645	    -17.76715189	      8.84115416	     -2.36665664	      3.42351053	     18.59025770	     -8.78140637	     -1.65907163	    -70.65154256	      1.76677342	     -8.32293916	      2.02071608	     -6.72368059	      6.33301957	      1.10858930
      0.79600000	      0.49795892	     -4.87450201	      6.77976808	     -0.41314303	      0.91581669	      0.31589410	      7.82076318	     11.32949911	     -4.23443474	    -17.24298407	      8.82829810	     -2.20015212	      3.41786725	     19.11459191	     -8.48773234	     -1.90468985	    -69.92968896	      2.16284629	     -8.30211055	      1.97952298	     -6.75949498	      6.14060538	      1.30707729
      0.80016667	      0.52682739	     -4.72184074	      6.56952333	     -0.40787628	      0.91688685	      0.31632470	      7.09096584	     11.25414087	     -3.99565428	    -16.65506512	      8.85336788	     -2.05675482	      3.41154839	     19.56520699	     -8.23812455	     -2.16000681	    -69.14874849	      2.51892494	     -8.24030949	      1.91260352	     -6.85661776	      5.95139187	      1.66606744
      0.80433333	      0.52766933	     -4.55454305	      6.32567264	     -0.40264722	      0.91788748	      0.31675637	      6.41013468	     11.14888167	     -3.75552578	    -16.10629408	      8.82450981	     -1.88259354	      3.40789535	     20.01542471	     -7.96972300	     -2.44253853	    -68.29651512	      2.88011948	     -8.19098399	      1.87213274	     -6.92786800	      5.76431630	      1.89239381
